<svg xmlns="http://www.w3.org/2000/svg" xmlns:xlink="http://www.w3.org/1999/xlink" width="1080" zoomAndPan="magnify" viewBox="0 0 810 809.999993" height="1080" preserveAspectRatio="xMidYMid meet" version="1.0"><defs><clipPath id="bca4ebdcef"><path d="M 33 121 L 729.039062 121 L 729.039062 810 L 33 810 Z M 33 121 " clip-rule="nonzero"/></clipPath><clipPath id="26b9c3cf5f"><path d="M 3.039062 0 L 246 0 L 246 271 L 3.039062 271 Z M 3.039062 0 " clip-rule="nonzero"/></clipPath></defs><rect x="-81" width="972" fill="#ffffff" y="-80.999999" height="971.999992" fill-opacity="1"/><rect x="-81" width="972" fill="#000000" y="-80.999999" height="971.999992" fill-opacity="1"/><g clip-path="url(#bca4ebdcef)"><path fill="#ffffff" d="M 428.347656 809.953125 C 415.792969 809.953125 403.054688 804.929688 393.90625 794.882812 L 51.828125 426.4375 C 35.148438 408.496094 29.585938 382.847656 37.300781 359.527344 L 100.082031 169.382812 C 109.769531 139.785156 138.46875 119.875 169.503906 121.128906 L 188.875 121.847656 C 241.433594 123.820312 287.535156 125.613281 348.34375 127.765625 C 366.28125 128.484375 382.964844 136.019531 395.164062 149.292969 L 716.433594 495.496094 C 725.042969 504.644531 729.347656 516.664062 728.992188 529.222656 C 728.453125 541.777344 723.25 553.4375 713.921875 561.867188 L 460.277344 797.394531 C 451.308594 805.824219 439.828125 809.953125 428.347656 809.953125 Z M 166.992188 142.65625 C 146.003906 142.65625 127.167969 156.289062 120.53125 176.199219 L 57.75 366.34375 C 52.546875 382.128906 56.3125 399.527344 67.613281 411.726562 L 409.691406 780.175781 C 419.199219 790.398438 435.34375 791.117188 445.75 781.429688 L 699.570312 545.902344 C 709.796875 536.394531 710.515625 520.253906 700.828125 509.847656 L 379.558594 163.644531 C 371.304688 154.675781 360.003906 149.472656 347.808594 149.113281 C 286.996094 146.78125 240.714844 145.167969 188.335938 143.195312 L 168.964844 142.476562 C 168.066406 142.65625 167.53125 142.65625 166.992188 142.65625 Z M 166.992188 142.65625 " fill-opacity="1" fill-rule="nonzero"/></g><path fill="#ffffff" d="M 206.453125 345.175781 C 166.453125 345.175781 133.804688 312.53125 133.804688 272.527344 C 133.804688 232.527344 166.453125 199.878906 206.453125 199.878906 C 246.457031 199.878906 279.105469 232.527344 279.105469 272.527344 C 279.105469 312.53125 246.457031 345.175781 206.453125 345.175781 Z M 206.453125 221.402344 C 178.292969 221.402344 155.332031 244.363281 155.332031 272.527344 C 155.332031 300.691406 178.292969 323.652344 206.453125 323.652344 C 234.617188 323.652344 257.578125 300.691406 257.578125 272.527344 C 257.578125 244.363281 234.617188 221.402344 206.453125 221.402344 Z M 206.453125 221.402344 " fill-opacity="1" fill-rule="nonzero"/><g clip-path="url(#26b9c3cf5f)"><path fill="#ffffff" d="M 201.613281 270.734375 C 198.921875 270.734375 196.050781 269.65625 194.078125 267.683594 C 189.953125 263.558594 189.773438 256.742188 194.078125 252.4375 C 196.410156 250.105469 248.429688 195.214844 210.042969 107.136719 C 184.929688 49.558594 131.652344 20.496094 92.011719 21.574219 C 63.847656 22.292969 42.679688 37.539062 32.636719 64.445312 C 5.371094 137.273438 51.648438 180.324219 100.261719 212.792969 C 105.285156 216.023438 106.539062 222.839844 103.3125 227.683594 C 100.082031 232.703125 93.265625 233.960938 88.421875 230.730469 C 65.28125 215.304688 39.273438 195.933594 21.871094 168.84375 C 0.347656 135.480469 -2.703125 97.8125 12.542969 56.910156 C 25.640625 21.753906 54.339844 0.945312 91.472656 0.046875 C 146.183594 -1.386719 204.300781 40.050781 229.953125 98.527344 C 253.09375 151.625 246.457031 194.496094 236.949219 221.226562 C 226.546875 250.285156 210.222656 266.964844 209.683594 267.503906 C 207.171875 269.65625 204.300781 270.734375 201.613281 270.734375 Z M 201.613281 270.734375 " fill-opacity="1" fill-rule="nonzero"/></g></svg>